# xmcd CD database file
#
# Track frame offsets:
#	150
#	1997
#	8877
#	60485
#	123990
#	130885
#	139085
#
# Disc length: 1997 seconds
#
# Revision: 0
# Processed by: cddbd v1.5.1PL2 Copyright (c) Steve Scherf et al.
# Submitted via: CDex 1.51
#
DISCID=5407cb07
DTITLE=奥慶一 - 「明日のナージャ」音的挿話シリーズその３ 「明後日のナージャ」第２話
DYEAR=1900
DGENRE=アニメ
TTITLE0=アバン「新装開店 味工場」
TTITLE1=オープニング「ナージャ!!」
TTITLE2=Ａパート「新装開店 味工場」
TTITLE3=Ｂパート「新装開店 味工場」
TTITLE4=エンディング「けせら・せら」
TTITLE5=次回予告
TTITLE6=Bonus Track 野生のDiamond(Rosy Dub ver.)歌:宍戸留美
EXTD=
EXTT0=
EXTT1=
EXTT2=
EXTT3=
EXTT4=
EXTT5=
EXTT6=
PLAYORDER=
